<svg width="268" height="268" viewBox="0 0 268 268" fill="none" xmlns="http://www.w3.org/2000/svg">
<path opacity="0.72" d="M106.111 56.2938L120.648 81.0228C120.772 81.2339 120.62 81.5 120.375 81.5V81.5H89.7188C80.309 81.5 72.6875 73.8785 72.6875 64.4688C72.6875 55.059 80.309 47.4375 89.7188 47.4375H90.6555C96.9996 47.4375 102.918 50.8012 106.111 56.2938ZM52.25 64.4688V64.4688C52.25 72.5619 46.7181 81.5 38.625 81.5V81.5C31.0887 81.5 25 87.5887 25 95.125V122.375C25 129.911 31.0887 136 38.625 136H229.375C236.911 136 243 129.911 243 122.375V95.125C243 87.5887 236.911 81.5 229.375 81.5V81.5C221.282 81.5 215.75 72.5619 215.75 64.4688V64.4688C215.75 43.7758 198.974 27 178.281 27H177.345C163.762 27 151.159 34.1957 144.261 45.9047V45.9047C139.671 53.733 128.337 53.7707 123.739 45.9473V45.9473C116.841 34.1957 104.238 27 90.6555 27H89.7188C69.0258 27 52.25 43.7758 52.25 64.4688ZM195.312 64.4688C195.312 73.8785 187.691 81.5 178.281 81.5H147.625V81.5C147.38 81.5 147.228 81.2339 147.352 81.0228L161.889 56.2938C165.125 50.8012 171 47.4375 177.345 47.4375H178.281C187.691 47.4375 195.312 55.059 195.312 64.4688ZM63.625 149.625C49.8179 149.625 38.625 160.818 38.625 174.625V224.562C38.625 235.846 47.7793 245 59.0625 245H95.375C109.182 245 120.375 233.807 120.375 220V174.625C120.375 160.818 109.182 149.625 95.375 149.625H63.625ZM147.625 220C147.625 233.807 158.818 245 172.625 245H208.938C220.221 245 229.375 235.846 229.375 224.562V174.625C229.375 160.818 218.182 149.625 204.375 149.625H172.625C158.818 149.625 147.625 160.818 147.625 174.625V220Z" fill="#272727"/>
<g filter="url(#filter0_dii_685_2390)">
<path d="M106.111 50.2938L120.648 75.0228C120.772 75.2339 120.62 75.5 120.375 75.5V75.5H89.7188C80.309 75.5 72.6875 67.8785 72.6875 58.4688C72.6875 49.059 80.309 41.4375 89.7188 41.4375H90.6555C96.9996 41.4375 102.918 44.8012 106.111 50.2938ZM52.25 58.4688V58.4688C52.25 66.5619 46.7181 75.5 38.625 75.5V75.5C31.0887 75.5 25 81.5887 25 89.125V116.375C25 123.911 31.0887 130 38.625 130H229.375C236.911 130 243 123.911 243 116.375V89.125C243 81.5887 236.911 75.5 229.375 75.5V75.5C221.282 75.5 215.75 66.5619 215.75 58.4688V58.4688C215.75 37.7758 198.974 21 178.281 21H177.345C163.762 21 151.159 28.1957 144.261 39.9047V39.9047C139.671 47.733 128.337 47.7707 123.739 39.9473V39.9473C116.841 28.1957 104.238 21 90.6555 21H89.7188C69.0258 21 52.25 37.7758 52.25 58.4688ZM195.312 58.4688C195.312 67.8785 187.691 75.5 178.281 75.5H147.625V75.5C147.38 75.5 147.228 75.2339 147.352 75.0228L161.889 50.2938C165.125 44.8012 171 41.4375 177.345 41.4375H178.281C187.691 41.4375 195.312 49.059 195.312 58.4688ZM63.625 143.625C49.8179 143.625 38.625 154.818 38.625 168.625V218.562C38.625 229.846 47.7793 239 59.0625 239H95.375C109.182 239 120.375 227.807 120.375 214V168.625C120.375 154.818 109.182 143.625 95.375 143.625H63.625ZM147.625 214C147.625 227.807 158.818 239 172.625 239H208.938C220.221 239 229.375 229.846 229.375 218.562V168.625C229.375 154.818 218.182 143.625 204.375 143.625H172.625C158.818 143.625 147.625 154.818 147.625 168.625V214Z" fill="url(#paint0_linear_685_2390)"/>
<path d="M106.111 50.2938L120.648 75.0228C120.772 75.2339 120.62 75.5 120.375 75.5V75.5H89.7188C80.309 75.5 72.6875 67.8785 72.6875 58.4688C72.6875 49.059 80.309 41.4375 89.7188 41.4375H90.6555C96.9996 41.4375 102.918 44.8012 106.111 50.2938ZM52.25 58.4688V58.4688C52.25 66.5619 46.7181 75.5 38.625 75.5V75.5C31.0887 75.5 25 81.5887 25 89.125V116.375C25 123.911 31.0887 130 38.625 130H229.375C236.911 130 243 123.911 243 116.375V89.125C243 81.5887 236.911 75.5 229.375 75.5V75.5C221.282 75.5 215.75 66.5619 215.75 58.4688V58.4688C215.75 37.7758 198.974 21 178.281 21H177.345C163.762 21 151.159 28.1957 144.261 39.9047V39.9047C139.671 47.733 128.337 47.7707 123.739 39.9473V39.9473C116.841 28.1957 104.238 21 90.6555 21H89.7188C69.0258 21 52.25 37.7758 52.25 58.4688ZM195.312 58.4688C195.312 67.8785 187.691 75.5 178.281 75.5H147.625V75.5C147.38 75.5 147.228 75.2339 147.352 75.0228L161.889 50.2938C165.125 44.8012 171 41.4375 177.345 41.4375H178.281C187.691 41.4375 195.312 49.059 195.312 58.4688ZM63.625 143.625C49.8179 143.625 38.625 154.818 38.625 168.625V218.562C38.625 229.846 47.7793 239 59.0625 239H95.375C109.182 239 120.375 227.807 120.375 214V168.625C120.375 154.818 109.182 143.625 95.375 143.625H63.625ZM147.625 214C147.625 227.807 158.818 239 172.625 239H208.938C220.221 239 229.375 229.846 229.375 218.562V168.625C229.375 154.818 218.182 143.625 204.375 143.625H172.625C158.818 143.625 147.625 154.818 147.625 168.625V214Z" fill="url(#paint1_linear_685_2390)"/>
<path d="M106.111 50.2938L120.648 75.0228C120.772 75.2339 120.62 75.5 120.375 75.5V75.5H89.7188C80.309 75.5 72.6875 67.8785 72.6875 58.4688C72.6875 49.059 80.309 41.4375 89.7188 41.4375H90.6555C96.9996 41.4375 102.918 44.8012 106.111 50.2938ZM52.25 58.4688V58.4688C52.25 66.5619 46.7181 75.5 38.625 75.5V75.5C31.0887 75.5 25 81.5887 25 89.125V116.375C25 123.911 31.0887 130 38.625 130H229.375C236.911 130 243 123.911 243 116.375V89.125C243 81.5887 236.911 75.5 229.375 75.5V75.5C221.282 75.5 215.75 66.5619 215.75 58.4688V58.4688C215.75 37.7758 198.974 21 178.281 21H177.345C163.762 21 151.159 28.1957 144.261 39.9047V39.9047C139.671 47.733 128.337 47.7707 123.739 39.9473V39.9473C116.841 28.1957 104.238 21 90.6555 21H89.7188C69.0258 21 52.25 37.7758 52.25 58.4688ZM195.312 58.4688C195.312 67.8785 187.691 75.5 178.281 75.5H147.625V75.5C147.38 75.5 147.228 75.2339 147.352 75.0228L161.889 50.2938C165.125 44.8012 171 41.4375 177.345 41.4375H178.281C187.691 41.4375 195.312 49.059 195.312 58.4688ZM63.625 143.625C49.8179 143.625 38.625 154.818 38.625 168.625V218.562C38.625 229.846 47.7793 239 59.0625 239H95.375C109.182 239 120.375 227.807 120.375 214V168.625C120.375 154.818 109.182 143.625 95.375 143.625H63.625ZM147.625 214C147.625 227.807 158.818 239 172.625 239H208.938C220.221 239 229.375 229.846 229.375 218.562V168.625C229.375 154.818 218.182 143.625 204.375 143.625H172.625C158.818 143.625 147.625 154.818 147.625 168.625V214Z" fill="url(#paint2_linear_685_2390)"/>
<path d="M106.111 50.2938L120.648 75.0228C120.772 75.2339 120.62 75.5 120.375 75.5V75.5H89.7188C80.309 75.5 72.6875 67.8785 72.6875 58.4688C72.6875 49.059 80.309 41.4375 89.7188 41.4375H90.6555C96.9996 41.4375 102.918 44.8012 106.111 50.2938ZM52.25 58.4688V58.4688C52.25 66.5619 46.7181 75.5 38.625 75.5V75.5C31.0887 75.5 25 81.5887 25 89.125V116.375C25 123.911 31.0887 130 38.625 130H229.375C236.911 130 243 123.911 243 116.375V89.125C243 81.5887 236.911 75.5 229.375 75.5V75.5C221.282 75.5 215.75 66.5619 215.75 58.4688V58.4688C215.75 37.7758 198.974 21 178.281 21H177.345C163.762 21 151.159 28.1957 144.261 39.9047V39.9047C139.671 47.733 128.337 47.7707 123.739 39.9473V39.9473C116.841 28.1957 104.238 21 90.6555 21H89.7188C69.0258 21 52.25 37.7758 52.25 58.4688ZM195.312 58.4688C195.312 67.8785 187.691 75.5 178.281 75.5H147.625V75.5C147.38 75.5 147.228 75.2339 147.352 75.0228L161.889 50.2938C165.125 44.8012 171 41.4375 177.345 41.4375H178.281C187.691 41.4375 195.312 49.059 195.312 58.4688ZM63.625 143.625C49.8179 143.625 38.625 154.818 38.625 168.625V218.562C38.625 229.846 47.7793 239 59.0625 239H95.375C109.182 239 120.375 227.807 120.375 214V168.625C120.375 154.818 109.182 143.625 95.375 143.625H63.625ZM147.625 214C147.625 227.807 158.818 239 172.625 239H208.938C220.221 239 229.375 229.846 229.375 218.562V168.625C229.375 154.818 218.182 143.625 204.375 143.625H172.625C158.818 143.625 147.625 154.818 147.625 168.625V214Z" fill="url(#paint3_radial_685_2390)"/>
</g>
<defs>
<filter id="filter0_dii_685_2390" x="0" y="0" width="268" height="268" filterUnits="userSpaceOnUse" color-interpolation-filters="sRGB">
<feFlood flood-opacity="0" result="BackgroundImageFix"/>
<feColorMatrix in="SourceAlpha" type="matrix" values="0 0 0 0 0 0 0 0 0 0 0 0 0 0 0 0 0 0 127 0" result="hardAlpha"/>
<feOffset dy="4"/>
<feGaussianBlur stdDeviation="12.5"/>
<feComposite in2="hardAlpha" operator="out"/>
<feColorMatrix type="matrix" values="0 0 0 0 0.152941 0 0 0 0 0.152941 0 0 0 0 0.152941 0 0 0 0.25 0"/>
<feBlend mode="normal" in2="BackgroundImageFix" result="effect1_dropShadow_685_2390"/>
<feBlend mode="normal" in="SourceGraphic" in2="effect1_dropShadow_685_2390" result="shape"/>
<feColorMatrix in="SourceAlpha" type="matrix" values="0 0 0 0 0 0 0 0 0 0 0 0 0 0 0 0 0 0 127 0" result="hardAlpha"/>
<feOffset dy="-6"/>
<feGaussianBlur stdDeviation="7.5"/>
<feComposite in2="hardAlpha" operator="arithmetic" k2="-1" k3="1"/>
<feColorMatrix type="matrix" values="0 0 0 0 0 0 0 0 0 0 0 0 0 0 0 0 0 0 0.15 0"/>
<feBlend mode="normal" in2="shape" result="effect2_innerShadow_685_2390"/>
<feColorMatrix in="SourceAlpha" type="matrix" values="0 0 0 0 0 0 0 0 0 0 0 0 0 0 0 0 0 0 127 0" result="hardAlpha"/>
<feOffset dy="6"/>
<feGaussianBlur stdDeviation="7.5"/>
<feComposite in2="hardAlpha" operator="arithmetic" k2="-1" k3="1"/>
<feColorMatrix type="matrix" values="0 0 0 0 0.976471 0 0 0 0 0.964706 0 0 0 0 0.933333 0 0 0 0.25 0"/>
<feBlend mode="normal" in2="effect2_innerShadow_685_2390" result="effect3_innerShadow_685_2390"/>
</filter>
<linearGradient id="paint0_linear_685_2390" x1="289.714" y1="-25.7144" x2="2.07516" y2="185.894" gradientUnits="userSpaceOnUse">
<stop stop-color="#9B87FB"/>
<stop offset="1" stop-color="white"/>
</linearGradient>
<linearGradient id="paint1_linear_685_2390" x1="243" y1="238.222" x2="96.9271" y2="-31.3162" gradientUnits="userSpaceOnUse">
<stop stop-color="#FD91E4"/>
<stop offset="1" stop-color="#9B87FB" stop-opacity="0"/>
</linearGradient>
<linearGradient id="paint2_linear_685_2390" x1="243" y1="238.222" x2="96.9271" y2="-31.3162" gradientUnits="userSpaceOnUse">
<stop stop-color="#FD91E4"/>
<stop offset="1" stop-color="#9B87FB" stop-opacity="0"/>
</linearGradient>
<radialGradient id="paint3_radial_685_2390" cx="0" cy="0" r="1" gradientUnits="userSpaceOnUse" gradientTransform="translate(11.375 47.8608) rotate(33.2953) scale(172.322 186.732)">
<stop stop-color="white"/>
<stop offset="0.464944" stop-color="white" stop-opacity="0"/>
</radialGradient>
</defs>
</svg>
